<svg id="cart" xmlns="http://www.w3.org/2000/svg" width="34.997" height="31.993" viewBox="0 0 34.997 31.993">
  <path id="Subtraction_1" data-name="Subtraction 1" d="M7000,6866a3.5,3.5,0,1,1,3.5-3.5A3.5,3.5,0,0,1,7000,6866Zm-13,0a3.5,3.5,0,1,1,3.5-3.5A3.5,3.5,0,0,1,6987,6866Zm-.38-9h-.261a1.99,1.99,0,0,1-1.948-1.551l-2.74-11.45-2-2c-.066,0-.125.005-.179.005a3,3,0,1,1,3-2.865l1.88,1.86,10.135.527c-.008.157-.013.317-.013.478a9.011,9.011,0,0,0,9,9c.162,0,.331,0,.5-.014l-.546,2.458a2.007,2.007,0,0,1-1.69,1.551l-15.14,2Z" transform="translate(-6976.496 -6834.006)" fill="#fff"/>
  <circle id="Ellipse_1" data-name="Ellipse 1" cx="8" cy="8" r="8" transform="translate(18.997)" fill="#ffc601"/>
  <text id="_2" data-name="2" transform="translate(26.997 12)" fill="#191919" font-size="10" font-family="Montserrat-Black, Montserrat" font-weight="800" letter-spacing="0.1em"><tspan x="-3.04" y="0">2</tspan></text>
</svg>
