<svg xmlns="http://www.w3.org/2000/svg" width="24" height="20" viewBox="0 0 24 20">
  <path id="ico_twitter" d="M727,6154.4a8.518,8.518,0,0,1-2.746.8,5.382,5.382,0,0,0,2.063-2.758,7.869,7.869,0,0,1-3.088,1.124h0A4.882,4.882,0,0,0,719.65,6152a5.016,5.016,0,0,0-4.951,5.078,5.21,5.21,0,0,0,.125,1.134h0a13.6,13.6,0,0,1-10.207-5.27,5.159,5.159,0,0,0,1.5,6.71,3.124,3.124,0,0,1-2.162-.575,4.879,4.879,0,0,0,3.82,4.963,3.834,3.834,0,0,1-2.062.161c.157,1.493,2.2,3.446,4.426,3.446a8.665,8.665,0,0,1-7.14,2.108,14.6,14.6,0,0,0,7.745,2.245,13.952,13.952,0,0,0,13.857-14.831c0-.009,0-.018,0-.028s0-.042,0-.064,0-.049,0-.074A8.672,8.672,0,0,0,727,6154.4Z" transform="translate(-703 -6152)" fill="#ffc601"/>
</svg>
