<svg xmlns="http://www.w3.org/2000/svg" width="42" height="34" viewBox="0 0 42 34">
  <path id="ico_twitter" d="M880,4596.085a15.226,15.226,0,0,1-4.805,1.359,9.181,9.181,0,0,0,3.609-4.689,14.039,14.039,0,0,1-5.4,1.911v0a8.652,8.652,0,0,0-14.708,7.891h0a24.027,24.027,0,0,1-17.862-8.958,8.619,8.619,0,0,0,2.628,11.406,5.583,5.583,0,0,1-3.784-.978c-.059,3.008,1.392,6.992,6.684,8.438a6.88,6.88,0,0,1-3.608.274c.275,2.539,3.844,5.857,7.745,5.857-1.391,1.6-6.623,4.51-12.494,3.585A26.107,26.107,0,0,0,851.554,4626a24.023,24.023,0,0,0,24.251-25.212c0-.016,0-.031,0-.048,0-.036,0-.071,0-.108s0-.084-.005-.126A14.919,14.919,0,0,0,880,4596.085Z" transform="translate(-838 -4592)" fill="#fff"/>
</svg>
