<svg xmlns="http://www.w3.org/2000/svg" width="176" height="27" viewBox="0 0 176 27">
  <g id="Pagination" transform="translate(-117 -388)" style="isolation: isolate">
    <g id="dots" style="isolation: isolate">
      <circle id="dot_ACTIVE" cx="3" cy="3" r="3" transform="translate(127 399)" fill="#4848ff"/>
      <path id="dots-2" data-name="dots" d="M287,402a3,3,0,1,1,3,3A3,3,0,0,1,287,402Zm-40,0a3,3,0,1,1,3,3A3,3,0,0,1,247,402Zm-40,0a3,3,0,1,1,3,3A3,3,0,0,1,207,402Zm-40,0a3,3,0,1,1,3,3A3,3,0,0,1,167,402Z" fill="#fff"/>
    </g>
    <g id="circle_bg" transform="translate(117 389)" fill="none" stroke="#fff" stroke-width="2" opacity="0.6">
      <circle cx="13" cy="13" r="13" stroke="none"/>
      <circle cx="13" cy="13" r="12" fill="none"/>
    </g>
    <path id="circle_loader" d="M130,389a13,13,0,0,1,13,13" fill="none" stroke="#4848ff" stroke-width="2"/>
  </g>
</svg>
